<?xml version="1.0" encoding="UTF-8"?>
<!-- Generated by Pixelmator Pro 3.4.3 -->
<svg width="86" height="86" viewBox="0 0 86 86" xmlns="http://www.w3.org/2000/svg">
    <g id="Layer1">
        <radialGradient id="radialGradient1" cx="36.902108" cy="41.443091" r="57.296906" fx="36.902108" fy="41.443091" gradientUnits="userSpaceOnUse">
            <stop offset="1e-05" stop-color="#00ffff" stop-opacity="1"/>
            <stop offset="1" stop-color="#008080" stop-opacity="1"/>
        </radialGradient>
        <path id="---" fill="url(#radialGradient1)" fill-rule="evenodd" stroke="none" d="M 0 70 C -0 78.836555 7.163444 86 16 86 L 70 86 C 78.836555 86 86 78.836555 86 70 L 86 16 C 86 7.163445 78.836555 0 70 0 L 16 0 C 7.163444 0 0 7.163445 0 16 Z"/>
        <g id="Layer1-7">
            <g id="Kruchok">
                <path id="path6" fill="#800000" stroke="none" d="M 22.876419 31.797405 C 22.722277 31.621006 22.55685 31.463833 22.381495 31.323902 C 22.205616 31.193588 22.015213 31.079578 21.816345 30.977791 C 21.617371 30.87632 21.409933 30.787178 21.199152 30.70713 C 19.228233 29.831188 16.911514 30.663551 15.103201 29.541508 C 14.57191 29.231342 14.157871 28.778847 13.870907 28.249855 C 13.583744 27.720768 13.42375 27.115387 13.399506 26.498299 C 13.432737 25.296101 13.816366 24.046982 14.716437 23.353291 C 16.538128 22.057354 19.096455 21.844482 20.926819 23.144913 C 21.419548 23.505344 21.834213 23.965885 22.123373 24.506374 C 22.412218 25.046547 22.49791 25.669697 22.565315 26.344887 C 22.684761 27.54071 22.2145 27.45763 21.756046 27.018196 C 21.045115 26.314793 20.623562 25.919979 20.022871 25.523914 C 19.224899 25.216679 18.436417 24.800442 17.606468 25.381271 C 17.0084 25.714424 16.673363 26.758926 17.184904 27.404648 C 17.406971 27.767899 17.79175 28.061554 18.252815 28.310268 C 19.174946 28.807804 20.401901 29.12685 21.240641 29.466694 C 21.544323 29.593666 21.838499 29.731503 22.115431 29.886272 C 22.391945 30.041145 22.651112 30.212845 22.883839 30.410248 C 23.106115 30.558006 23.32275 30.716755 23.532173 30.889603"/>
            </g>
            <g id="Leg2">
                <g id="x3CPathx3E">
                    <path id="path10" fill="#b31900" stroke="none" d="M 41.426888 60.280006 C 40.235554 61.032429 38.229107 63.101578 37.790195 64.41832 C 37.727493 64.731911 37.539494 65.86055 37.664795 66.04866 C 37.9156 66.487564 39.106823 66.424965 39.671242 66.362274 C 42.30471 66.111359 47.446236 63.603394 49.452686 66.299362 C 50.644016 67.804192 51.020226 69.434532 48.825672 69.936264 C 47.446236 70.249657 46.004101 70.312454 44.561966 70.312454 C 43.245129 70.312454 41.364079 70.625862 40.110153 70.312454 C 39.232334 70.124367 39.232334 69.183846 38.479912 69.058426 C 37.727493 68.93293 37.037674 69.810745 36.285267 69.936249 C 34.341618 70.249657 32.084362 70.312454 32.146961 67.804306 C 32.209663 66.613075 33.024773 66.299454 33.33828 65.233643 C 33.777294 63.916809 33.275589 62.286568 33.275589 60.969833"/>
                    <g id="g12">
                        <path id="path14" fill="none" stroke="none" d="M 41.426888 60.280006 C 40.235554 61.032429 38.229107 63.101578 37.790195 64.41832 C 37.727493 64.731911 37.539494 65.86055 37.664795 66.04866 C 37.9156 66.487564 39.106823 66.424965 39.671242 66.362274 C 42.30471 66.111359 47.446236 63.603394 49.452686 66.299362 C 50.644016 67.804192 51.020226 69.434532 48.825672 69.936264 C 47.446236 70.249657 46.004101 70.312454 44.561966 70.312454 C 43.245129 70.312454 41.364079 70.625862 40.110153 70.312454 C 39.232334 70.124367 39.232334 69.183846 38.479912 69.058426 C 37.727493 68.93293 37.037674 69.810745 36.285267 69.936249 C 34.341618 70.249657 32.084362 70.312454 32.146961 67.804306 C 32.209663 66.613075 33.024773 66.299454 33.33828 65.233643 C 33.777294 63.916809 33.275589 62.286568 33.275589 60.969833"/>
                        <path id="path16" fill="#800000" stroke="none" d="M 41.189457 59.874016 C 40.332535 60.427464 39.784626 60.78643 38.844101 61.915062 C 37.997635 62.761528 37.499783 63.451981 37.325787 64.349342 C 37.199337 65.000916 36.877262 66.100388 37.523296 66.566978 C 38.19619 67.053024 39.288868 66.896698 40.058632 66.784447 C 41.961941 66.507095 43.770359 65.772026 45.690487 65.57296 C 46.560787 65.482773 47.501102 65.492386 48.29417 65.905685 C 49.063938 66.307083 49.776516 66.882439 50.0037 67.701126 C 50.310104 68.804237 49.011894 69.431503 48.180576 69.588791 C 46.758297 69.857674 45.32243 69.792244 43.885727 69.862473 C 42.685829 69.92131 41.421349 70.132088 40.235138 69.85881 C 39.820679 69.763298 39.627666 69.368172 39.374454 69.064812 C 39.067112 68.696442 38.589016 68.527878 38.119274 68.596626 C 37.607632 68.671448 37.179482 68.981522 36.746017 69.241425 C 36.302284 69.507584 35.804962 69.545822 35.299583 69.59108 C 34.559822 69.657227 33.611565 69.692459 33.028011 69.148506 C 32.299534 68.469467 32.629555 67.313766 33.117989 66.619453 C 33.813137 65.631592 34.042316 64.622726 33.96822 63.417179 C 33.91785 62.598717 33.756603 61.791431 33.745842 60.969833 C 33.737896 60.364029 32.797371 60.363091 32.805317 60.969833 C 32.822037 62.247795 33.228027 63.549477 32.965008 64.821693 C 32.755165 65.837982 31.851114 66.487991 31.705124 67.534897 C 31.578884 68.439987 31.837318 69.438202 32.590355 70.004189 C 33.263561 70.510086 34.157894 70.583336 34.97176 70.552826 C 35.417358 70.536209 35.861496 70.473717 36.301868 70.406837 C 36.861065 70.321976 37.313457 69.986732 37.790718 69.708443 C 38.219074 69.458893 38.514713 69.461716 38.812859 69.860184 C 39.109123 70.255829 39.393787 70.555756 39.865406 70.733932 C 40.355419 70.919006 40.96373 70.915764 41.47924 70.921928 C 42.136772 70.929352 42.794617 70.872292 43.450058 70.829124 C 44.836491 70.737793 46.221569 70.792656 47.604034 70.621376 C 48.680309 70.488037 49.91856 70.332329 50.602112 69.392426 C 51.121906 68.677216 50.829823 67.698967 50.472317 66.990646 C 50.059742 66.173431 49.424576 65.404724 48.589809 65.00415 C 47.765701 64.608826 46.822567 64.552818 45.924259 64.612694 C 43.9594 64.743423 42.10281 65.454353 40.180904 65.816986 C 39.814201 65.886154 39.443115 65.920746 39.070351 65.933914 C 38.847973 65.941956 38.619423 65.939873 38.399029 65.90612 C 38.314903 65.893265 38.215939 65.875809 38.136833 65.842278 C 37.987926 65.77916 38.099419 65.938194 38.09325 65.821152 C 38.047691 64.950851 38.334549 64.211304 38.817245 63.508198 C 39.554512 62.434555 40.567142 61.394539 41.664108 60.686119 C 42.171677 60.358284 41.700577 59.543789 41.189457 59.874016 Z"/>
                    </g>
                </g>
                <radialGradient id="radialGradient2" cx="45.691906" cy="67.742535" r="3.344297" fx="45.691906" fy="67.742535" gradientUnits="userSpaceOnUse">
                    <stop offset="1e-05" stop-color="#e00000" stop-opacity="1"/>
                    <stop offset="0" stop-color="#ff0000" stop-opacity="1"/>
                    <stop offset="0.4101" stop-color="#ff0000" stop-opacity="1"/>
                    <stop offset="1" stop-color="#b31907" stop-opacity="1"/>
                </radialGradient>
                <path id="ellipse39" fill="url(#radialGradient2)" stroke="none" d="M 49.954296 67.741386 C 49.954296 68.84964 48.045372 69.748047 45.690594 69.748047 C 43.335815 69.748047 41.426888 68.84964 41.426888 67.741386 C 41.426888 66.633141 43.335815 65.734734 45.690594 65.734734 C 48.045372 65.734734 49.954296 66.633141 49.954296 67.741386 Z"/>
            </g>
            <g id="Leg1">
                <g id="x3CPathx3E1">
                    <path id="path43" fill="#b31900" stroke="none" d="M 32.084354 61.65955 C 30.70492 61.847652 29.074678 64.543823 28.698467 65.735046 C 28.259558 66.926468 28.823872 68.74472 28.008646 69.748047 C 27.444332 70.500366 26.503809 70.374962 25.688688 70.374962 C 25.249779 70.374962 24.93627 70.437653 24.49736 70.249557 C 24.183851 70.061348 24.058344 69.497139 23.619537 69.434441 C 23.117821 69.371735 23.055223 69.810646 22.741714 69.998749 C 22.240103 70.249451 22.1147 70.249451 21.550489 70.312256 C 20.73538 70.374962 19.920145 70.312256 19.042427 70.312256 C 16.847872 70.312256 9.511789 71.503479 9.010177 68.305809 C 8.383276 64.293015 15.155035 64.543716 17.600395 64.857224 C 19.418741 65.107925 20.92358 66.738266 22.867327 65.985954 C 24.748375 65.296135 26.002405 62.788071 27.068331 61.28334"/>
                    <g id="g45">
                        <path id="path47" fill="none" stroke="none" d="M 32.084354 61.65955 C 30.70492 61.847652 29.074678 64.543823 28.698467 65.735046 C 28.259558 66.926468 28.823872 68.74472 28.008646 69.748047 C 27.444332 70.500366 26.503809 70.374962 25.688688 70.374962 C 25.249779 70.374962 24.93627 70.437653 24.49736 70.249557 C 24.183851 70.061348 24.058344 69.497139 23.619537 69.434441 C 23.117821 69.371735 23.055223 69.810646 22.741714 69.998749 C 22.240103 70.249451 22.1147 70.249451 21.550489 70.312256 C 20.73538 70.374962 19.920145 70.312256 19.042427 70.312256 C 16.847872 70.312256 9.511789 71.503479 9.010177 68.305809 C 8.383276 64.293015 15.155035 64.543716 17.600395 64.857224 C 19.418741 65.107925 20.92358 66.738266 22.867327 65.985954 C 24.748375 65.296135 26.002405 62.788071 27.068331 61.28334"/>
                        <path id="path49" fill="#800000" stroke="none" d="M 31.959473 61.206215 C 31.089907 61.35482 30.398518 62.089787 29.870674 62.743767 C 29.267172 63.491379 28.755945 64.330948 28.390499 65.220062 C 27.990568 66.193283 28.062883 67.189308 28.008751 68.218552 C 27.981371 68.738647 27.87133 69.235458 27.496269 69.615738 C 27.121941 69.995392 26.416655 69.916183 25.936674 69.907623 C 25.655352 69.902405 25.374346 69.916809 25.093128 69.912537 C 24.787354 69.90815 24.673342 69.785782 24.511675 69.557846 C 24.194614 69.110588 23.81015 68.90921 23.260361 68.992081 C 22.831285 69.05687 22.633776 69.557007 22.244909 69.711792 C 21.687294 69.933548 20.989321 69.874588 20.402958 69.866959 C 18.805218 69.84639 17.239454 69.96019 15.644431 70.029579 C 14.056618 70.098854 12.353957 70.142342 10.834698 69.60498 C 10.340088 69.430145 9.79124 69.10881 9.577846 68.601974 C 9.339997 68.037132 9.396952 67.333939 9.701995 66.808815 C 10.381888 65.638275 12.166898 65.370018 13.377978 65.246498 C 14.762847 65.104889 16.229645 65.115448 17.607721 65.33136 C 18.670931 65.498016 19.608622 66.126198 20.622402 66.455276 C 21.65259 66.789566 22.699392 66.663544 23.640123 66.139366 C 25.408203 65.153908 26.356775 63.112762 27.474117 61.520664 C 27.823364 61.023026 27.007511 60.553703 26.662025 61.046013 C 25.524933 62.666428 24.507914 65.001747 22.460718 65.625946 C 21.353827 65.963486 20.231783 65.299477 19.24789 64.878433 C 18.445936 64.535149 17.65621 64.37619 16.793856 64.302948 C 15.270625 64.173256 13.718239 64.192902 12.211834 64.469414 C 10.886636 64.712578 9.350448 65.282234 8.753946 66.597702 C 8.158595 67.910568 8.599283 69.420334 9.823844 70.164169 C 11.146429 70.967789 12.920362 71.000931 14.418719 70.999985 C 15.890534 70.998833 17.352318 70.830368 18.821728 70.786064 C 19.97784 70.751068 21.150568 70.918777 22.29435 70.679688 C 22.750086 70.584381 23.117517 70.339325 23.410854 69.990074 C 23.559668 69.813042 23.659048 69.975868 23.760939 70.119347 C 23.909332 70.328758 24.051342 70.504013 24.25993 70.655762 C 24.745136 71.008453 25.629644 70.843872 26.188629 70.852333 C 26.773529 70.86132 27.351011 70.805511 27.866104 70.508308 C 29.025875 69.839478 28.954395 68.273621 28.974669 67.127548 C 28.994211 66.026604 29.39707 65.144608 29.969116 64.221939 C 30.45892 63.431808 31.214579 62.283012 32.209129 62.112881 C 32.806362 62.01078 32.552422 61.104538 31.959473 61.206215 L 31.959473 61.206215 Z"/>
                    </g>
                </g>
                <radialGradient id="radialGradient3" cx="13.996212" cy="67.554385" r="3.294204" fx="13.996212" fy="67.554385" gradientUnits="userSpaceOnUse">
                    <stop offset="1e-05" stop-color="#e00000" stop-opacity="1"/>
                    <stop offset="0" stop-color="#ff0000" stop-opacity="1"/>
                    <stop offset="0.4101" stop-color="#ff0000" stop-opacity="1"/>
                    <stop offset="1" stop-color="#b31907" stop-opacity="1"/>
                </radialGradient>
                <path id="ellipse72" fill="url(#radialGradient3)" stroke="none" d="M 18.258553 67.553284 C 18.258553 68.661476 16.349627 69.559837 13.994846 69.559837 C 11.640066 69.559837 9.73114 68.661476 9.73114 67.553284 C 9.73114 66.445099 11.640066 65.54673 13.994846 65.54673 C 16.349627 65.54673 18.258553 66.445099 18.258553 67.553284 Z"/>
            </g>
            <g id="Hand2">
                <path id="path75" fill="#ff0000" stroke="none" d="M 51.208229 41.281647 C 54.217899 39.651405 57.791893 40.591927 60.926968 39.776806 C 61.930298 39.526001 62.118298 39.337898 61.115078 38.773582 C 60.30006 38.271969 59.296833 38.083866 58.356312 37.833061 C 57.10228 37.456848 55.722843 37.456848 54.406109 37.080639 C 54.029797 37.017937 53.590885 36.955235 53.340183 36.70443 C 52.587765 36.265522 52.963974 35.88932 52.65036 35.324997 C 52.14875 34.572578 51.14563 34.447186 50.330509 34.008274 C 52.487957 32.122074 54.382488 30.843117 56.19149 29.930302 C 57.243134 29.659958 58.857922 28.992149 59.422131 29.995373 C 59.735744 30.622391 59.359531 31.50021 59.61034 32.18993 C 59.861046 32.942348 60.613567 33.632053 61.177879 34.133675 C 62.620018 35.324997 63.560543 36.95525 65.065277 38.146568 C 65.817696 38.836281 66.821022 38.961685 66.94632 40.027615 C 67.071831 41.09354 66.382111 41.156242 65.504189 41.281647 C 61.804893 41.720554 58.669819 42.535572 55.221233 43.852409 C 52.713169 44.792931 50.455807 45.984158 48.010551 47.05019"/>
                <g id="g77">
                    <path id="path79" fill="none" stroke="none" d="M 51.208229 41.281647 C 54.217899 39.651405 57.791893 40.591927 60.926968 39.776806 C 61.930298 39.526001 62.118298 39.337898 61.115078 38.773582 C 60.30006 38.271969 59.296833 38.083866 58.356312 37.833061 C 57.10228 37.456848 55.722843 37.456848 54.406109 37.080639 C 54.029797 37.017937 53.590885 36.955235 53.340183 36.70443 C 52.587765 36.265522 52.963974 35.88932 52.65036 35.324997 C 52.14875 34.572578 51.14563 34.447186 50.330509 34.008274 C 46.819118 32.315331 54.092602 29.619164 55.660034 29.431057 C 56.663368 29.305656 58.857922 28.992149 59.422131 29.995373 C 59.735744 30.622391 59.359531 31.50021 59.61034 32.18993 C 59.861046 32.942348 60.613567 33.632053 61.177879 34.133675 C 62.620018 35.324997 63.560543 36.95525 65.065277 38.146568 C 65.817696 38.836281 66.821022 38.961685 66.94632 40.027615 C 67.071831 41.09354 66.382111 41.156242 65.504189 41.281647 C 61.804893 41.720554 58.669819 42.535572 55.221233 43.852409 C 52.713169 44.792931 50.455807 45.984158 48.010551 47.05019"/>
                    <path id="path81" fill="#800000" stroke="none" d="M 51.445656 41.687531 C 53.849216 40.421692 56.639645 40.791111 59.250015 40.536224 C 59.857174 40.477081 60.460258 40.378429 61.051956 40.230034 C 61.455959 40.128666 62.072006 40.001801 62.217369 39.540733 C 62.348309 39.125965 62.038773 38.836182 61.740002 38.608154 C 61.207874 38.201847 60.540726 37.951252 59.907864 37.755619 C 58.54055 37.333118 57.15432 37.109379 55.745522 36.8871 C 55.128639 36.789703 54.488564 36.665451 53.88903 36.4902 C 53.719631 36.440666 53.382195 36.232601 53.316147 36.066555 C 53.236099 35.865597 53.252506 35.625763 53.196808 35.416134 C 52.910053 34.33432 51.54953 34.074005 50.685505 33.662682 C 52.994324 32.049103 53.835056 31.68259 56.651371 29.921894 C 57.304722 29.86306 58.598232 29.563255 59.01614 30.2327 C 59.150215 30.447765 59.083019 30.831917 59.069435 31.069138 C 59.053135 31.356415 59.038815 31.636795 59.072674 31.92334 C 59.146141 32.543354 59.503956 33.061794 59.89323 33.530067 C 60.278214 33.993225 60.751717 34.37048 61.196064 34.772812 C 61.691402 35.22155 62.129902 35.731625 62.564526 36.237942 C 63.375347 37.182121 64.190361 38.141666 65.219719 38.857716 C 65.740036 39.219505 66.424217 39.440216 66.487854 40.161388 C 66.548782 40.851311 65.642532 40.793823 65.153473 40.854645 C 63.165417 41.101795 61.199291 41.486053 59.267365 42.016518 C 57.305851 42.554905 55.376942 43.242325 53.505402 44.038109 C 51.573254 44.859501 49.696175 45.802639 47.773018 46.644508 C 47.218422 46.887165 47.69767 47.697269 48.247772 47.4566 C 50.941326 46.277287 53.554203 44.9454 56.323524 43.943535 C 58.948837 42.993813 61.653996 42.305038 64.415688 41.895714 C 65.2286 41.775314 66.692154 41.864876 67.213531 41.05822 C 67.747749 40.231705 67.297745 39.131409 66.566551 38.603985 C 66.184494 38.328304 65.753632 38.125782 65.397575 37.814259 C 64.88166 37.362808 64.395409 36.905712 63.937897 36.393337 C 63.078678 35.431389 62.263763 34.482086 61.304119 33.616703 C 60.846504 33.203915 60.412712 32.765842 60.124176 32.21553 C 59.834812 31.663445 60.066811 30.96526 60.004417 30.371792 C 59.898666 29.365116 59.004749 28.951286 58.099026 28.85149 C 55.121105 30.544342 53.420227 31.527763 49.598259 34.118835 C 50.217018 34.574993 50.980724 34.751495 51.659157 35.092278 C 52.02084 35.273903 52.293591 35.512589 52.341347 35.928196 C 52.390152 36.352684 52.527885 36.680092 52.871384 36.950115 C 53.684311 37.589359 54.847111 37.698471 55.843857 37.848106 C 57.033726 38.027016 58.179176 38.262253 59.341873 38.572937 C 59.879433 38.716629 60.396301 38.897312 60.877228 39.179783 C 60.971474 39.232349 61.064075 39.287735 61.154877 39.345943 C 61.191662 39.370918 61.228134 39.395683 61.264828 39.420555 C 61.392632 39.568218 61.432343 39.47406 61.383961 39.138084 C 61.181747 39.268715 60.881092 39.30341 60.65192 39.360886 C 59.580971 39.62925 58.464466 39.670528 57.366253 39.707832 C 55.173157 39.782345 52.957806 39.82885 50.970585 40.875443 C 50.434174 41.158123 50.909557 41.969898 51.445656 41.687531 Z"/>
                </g>
            </g>
            <g id="Bashka">
                <linearGradient id="linearGradient1" x1="45.110093" y1="31.261" x2="16.896412" y2="59.741846" gradientUnits="userSpaceOnUse">
                    <stop offset="1e-05" stop-color="#ff0000" stop-opacity="1"/>
                    <stop offset="1" stop-color="#803200" stop-opacity="1"/>
                    <stop offset="1" stop-color="#800000" stop-opacity="1"/>
                </linearGradient>
                <path id="Bashka1" fill="url(#linearGradient1)" stroke="none" d="M 30.99822 27.5 C 18.297255 27.5 8 35.556164 8 45.507183 C 8 55.44384 18.297255 63.5 30.99822 63.5 C 43.70892 63.5 54 55.44384 54 45.507183 C 54 35.556164 43.714989 27.5 30.99822 27.5"/>
            </g>
            <g id="Belt">
                <g id="Belt1">
                    <path id="path98" fill="#ffff00" stroke="none" d="M 49.396671 55.109329 C 50.043335 55.174118 50.257324 55.710506 50.708359 55.169392 C 51.008278 54.809174 51.487637 53.865002 51.713463 53.490032 C 51.994991 52.95237 53.406544 50.897346 52.854244 50.779259 C 51.899822 50.575169 50.956165 50.457603 50.342007 50.383415 C 48.135746 50.116611 45.970348 50.261982 43.760639 50.313187 C 43.539196 50.318405 43.315666 50.317047 43.090569 50.313396 C 42.168751 50.307346 41.252678 50.345375 40.340057 50.406197 C 40.035854 50.426365 39.732166 50.449146 39.428692 50.473495 C 38.513145 50.575283 37.666672 50.575283 36.703785 50.71981 C 36.401356 50.748127 36.098717 50.775822 35.795765 50.802784 C 32.6819 51.045441 29.578068 51.797855 26.475594 52.499802 C 25.947332 52.635132 25.419594 52.778824 24.892065 52.93359 C 24.590679 53.022003 24.28919 53.114384 23.987492 53.210629 C 23.700109 53.323177 23.409487 53.434158 23.116568 53.543991 C 21.583721 54.055008 20.078884 54.619324 18.671234 55.262955 C 18.379358 55.391075 18.0902 55.52327 17.804384 55.66111 C 16.946846 56.074627 16.120638 56.536945 15.351291 57.076797 C 15.14679 57.290829 14.719344 57.75666 14.472833 57.962215 C 14.096623 58.275837 17.388691 60.454865 17.767397 60.276688 C 18.833324 59.775188 17.993011 60.124729 19.29501 59.603992 C 21.64632 58.569416 24.029083 57.534843 26.452082 56.931965 C 26.812092 56.848053 27.162804 56.767059 27.508707 56.68837 C 27.854609 56.609573 28.196228 56.533184 28.535549 56.458046 C 28.761902 56.40799 28.987209 56.358353 29.212202 56.308502 C 29.819677 56.175785 30.427361 56.043274 31.035877 55.9161 C 31.644293 55.788811 32.25396 55.666229 32.865509 55.553261 C 33.171284 55.496727 33.477375 55.442802 33.783878 55.39233 C 36.726147 54.901375 39.735825 54.525169 42.760757 54.601974 C 43.060993 54.603127 43.361858 54.605423 43.663349 54.609081 C 44.44492 54.517433 45.242695 54.566551 46.044018 54.664154 C 46.31134 54.696762 46.578758 54.734589 46.846287 54.774612 C 47.730171 54.807426 48.576641 55.026779 49.396671 55.109337 Z"/>
                    <path id="path100" fill="none" stroke="#000000" stroke-width="1.045026" stroke-linecap="round" d="M 52.727066 50.790234 C 52.235905 50.694927 51.743279 50.617802 51.246788 50.551655 C 48.202522 50.086197 45.15303 50.184429 42.069683 50.296562 C 41.768192 50.304817 41.466282 50.316311 41.163857 50.329689 C 38.006306 50.577152 34.766308 50.675278 31.590578 51.31797 C 31.259514 51.372417 30.929285 51.430416 30.599789 51.493431 C 27.619375 52.246269 24.474787 52.835339 21.582781 54.040054 C 21.296654 54.161057 21.010944 54.286674 20.724815 54.4151 C 18.566628 55.387814 16.279482 56.369514 14.18755 57.664192"/>
                    <path id="path102" fill="none" stroke="#000000" stroke-width="1.045026" stroke-linecap="round" d="M 50.064968 55.133049 C 47.602989 54.699783 45.063576 54.699783 42.650089 54.694031 C 42.341805 54.697899 42.032791 54.705002 41.722839 54.716606 C 38.57407 54.887886 35.564289 55.170044 32.534134 55.793087 C 32.224491 55.851921 31.914118 55.913055 31.604895 55.980461 C 29.916656 56.233665 28.273037 56.571735 26.675297 57.042831 C 26.353857 57.136154 26.033442 57.234386 25.7052 57.332619 C 23.055443 57.897453 20.393715 59.142914 17.745813 60.038261"/>
                </g>
                <g id="Pryazhka">
                    <linearGradient id="linearGradient2" x1="48.501012" y1="52.501096" x2="38.501532" y2="52.501096" gradientUnits="userSpaceOnUse">
                        <stop offset="1e-05" stop-color="#ffffff" stop-opacity="1"/>
                        <stop offset="0" stop-color="#ffff00" stop-opacity="1"/>
                        <stop offset="0.0056" stop-color="#e03200" stop-opacity="1"/>
                        <stop offset="0.00561" stop-color="#faff00" stop-opacity="1"/>
                    </linearGradient>
                    <path id="rect114" fill="url(#linearGradient2)" stroke="#000000" stroke-width="1.000476" d="M 38.500237 48.500237 L 48.49976 48.500237 L 48.49976 56.499763 L 38.500237 56.499763 Z"/>
                    <path id="rect116" fill="#ffff00" stroke="#000000" stroke-width="0.999731" d="M 40.499866 50.499866 L 46.500134 50.499866 L 46.500134 54.50013 L 40.499866 54.50013 Z"/>
                    <linearGradient id="linearGradient3" x1="43.499851" y1="52.500145" x2="46.500439" y2="52.500145" gradientUnits="userSpaceOnUse">
                        <stop offset="1e-05" stop-color="#ffffff" stop-opacity="1"/>
                        <stop offset="0.0056" stop-color="#000000" stop-opacity="1"/>
                        <stop offset="1" stop-color="#000000" stop-opacity="1"/>
                        <stop offset="1" stop-color="#e03200" stop-opacity="1"/>
                    </linearGradient>
                    <path id="line129" fill="url(#linearGradient3)" stroke="#000000" stroke-width="0.999707" stroke-linecap="square" d="M 46.500439 52.500145 L 43.499851 52.500145"/>
                </g>
            </g>
            <g id="Mouth">
                <g id="g132">
                    <path id="path136" fill="#000000" stroke="#000000" stroke-width="0.497975" stroke-linecap="round" d="M 37.206142 44.632969 C 36.435352 44.670635 35.707485 44.567142 35.157944 43.994469 C 34.616684 43.430321 34.465714 42.517773 34.382511 41.780106 C 34.303322 41.075783 33.172867 41.068127 33.253056 41.780106 C 33.37215 42.836529 33.606075 43.846516 34.285755 44.696201 C 34.975475 45.558479 36.15086 45.795849 37.206142 45.74435 C 37.930874 45.709274 37.934391 44.597523 37.206142 44.632969 L 37.206142 44.632969 Z"/>
                </g>
            </g>
            <g id="Hand1">
                <linearGradient id="linearGradient4" x1="21.143481" y1="41.877424" x2="10.543303" y2="52.477605" gradientUnits="userSpaceOnUse">
                    <stop offset="1e-05" stop-color="#ffffff" stop-opacity="1"/>
                    <stop offset="0" stop-color="#b60000" stop-opacity="1"/>
                    <stop offset="1" stop-color="#fa3200" stop-opacity="1"/>
                    <stop offset="1" stop-color="#e13207" stop-opacity="1"/>
                </linearGradient>
                <path id="path150" fill="url(#linearGradient4)" stroke="none" d="M 21.864103 42.598274 C 20.17116 44.291214 18.666323 44.354023 16.722574 44.85553 C 15.155035 45.231842 13.273988 45.796051 11.643747 45.733456 C 12.772375 45.733456 14.966929 47.175488 15.970155 47.927803 C 17.34959 48.931236 18.791725 50.122463 19.544144 51.6273 C 21.487892 55.263885 17.600395 56.518021 14.590825 55.891006 C 13.336689 55.640198 11.643747 53.947155 12.835181 52.755924 C 13.524899 52.00351 16.095663 51.689896 16.597275 52.755924 C 16.848082 51.6273 13.085987 50.185059 12.020061 49.746254 C 10.577935 49.056431 9.135799 48.617519 7.881768 47.676998 C 5.499108 45.984158 6.37693 44.792828 8.508783 43.538692 C 10.703339 42.159363 13.211401 41.281437 15.531453 40.215508 C 16.032961 40.027405 16.534573 39.902 16.973484 39.525791"/>
                <g id="g152">
                    <path id="path154" fill="none" stroke="none" d="M 21.864103 42.598274 C 20.17116 44.291214 18.666323 44.354023 16.722574 44.85553 C 15.155035 45.231842 13.273988 45.796051 11.643747 45.733456 C 12.772375 45.733456 14.966929 47.175488 15.970155 47.927803 C 17.34959 48.931236 18.791725 50.122463 19.544144 51.6273 C 21.487892 55.263885 17.600395 56.518021 14.590825 55.891006 C 13.336689 55.640198 11.643747 53.947155 12.835181 52.755924 C 13.524899 52.00351 16.095663 51.689896 16.597275 52.755924 C 16.848082 51.6273 13.085987 50.185059 12.020061 49.746254 C 10.577935 49.056431 9.135799 48.617519 7.881768 47.676998 C 5.499108 45.984158 6.37693 44.792828 8.508783 43.538692 C 10.703339 42.159363 13.211401 41.281437 15.531453 40.215508 C 16.032961 40.027405 16.534573 39.902 16.973484 39.525791"/>
                    <path id="path156" fill="#800000" stroke="none" d="M 21.531574 42.265747 C 20.938002 42.847198 20.273573 43.323833 19.498999 43.633057 C 18.784828 43.918243 18.021019 44.066536 17.274139 44.238232 C 15.423816 44.662827 13.563983 45.313984 11.643747 45.263298 C 11.036692 45.247204 11.038677 46.185951 11.643747 46.203823 C 12.578314 46.231304 13.537334 46.887894 14.304802 47.361191 C 15.237697 47.936161 16.132238 48.593067 16.970663 49.297516 C 17.952778 50.122879 18.783678 51.068523 19.322285 52.240936 C 19.647287 52.948212 19.751581 53.842113 19.231264 54.482521 C 18.218216 55.72871 15.932952 55.783264 14.519659 55.38792 C 13.787827 55.183311 12.718556 54.320328 12.931219 53.459335 C 13.119533 52.69751 14.320477 52.554443 14.944358 52.539501 C 15.365398 52.529575 15.97005 52.575241 16.190969 52.993252 C 16.370609 53.333511 16.982576 53.286484 17.050503 52.881119 C 17.164829 52.197777 16.698433 51.702747 16.193268 51.312851 C 15.529468 50.800579 14.765031 50.427608 14.006028 50.07972 C 12.092481 49.202629 9.989679 48.581467 8.253996 47.369965 C 7.568041 46.891029 6.544229 46.128475 7.129861 45.221081 C 7.388923 44.819374 7.840897 44.523212 8.230064 44.264042 C 8.772642 43.902882 9.343749 43.576939 9.916737 43.266987 C 11.110575 42.621784 12.364501 42.092796 13.612263 41.56213 C 14.23165 41.298679 14.850723 41.034912 15.46499 40.759758 C 16.107576 40.471867 16.74431 40.302872 17.305803 39.858421 C 17.78129 39.482109 17.110905 38.821339 16.640852 39.193371 C 16.132238 39.595913 15.424965 39.752872 14.837765 40.016014 C 14.222977 40.291378 13.601707 40.552635 12.981902 40.816399 C 11.68095 41.36974 10.384595 41.934788 9.145194 42.617188 C 7.649448 43.44046 4.921408 44.973827 6.451535 46.99313 C 7.197997 47.978378 8.394447 48.633717 9.494024 49.144211 C 10.474676 49.599426 11.474766 50.026318 12.47517 50.436176 C 13.26824 50.761284 14.052845 51.111786 14.802443 51.528332 C 15.135597 51.713512 15.466453 51.915623 15.758224 52.162041 C 15.860846 52.248569 15.967333 52.345753 16.046652 52.45475 C 16.093781 52.519543 16.136209 52.677341 16.144047 52.630733 C 16.430489 52.593529 16.71693 52.556015 17.003582 52.518497 C 16.23789 51.069149 13.662633 51.490189 12.605798 52.325794 C 11.828612 52.94006 11.834778 53.979233 12.296366 54.772305 C 12.764851 55.576973 13.668171 56.184761 14.572851 56.365868 C 16.240398 56.699753 18.220724 56.554703 19.587198 55.453453 C 21.215246 54.141418 20.413919 51.917709 19.404842 50.499191 C 18.418652 49.113174 17.001596 48.058743 15.617458 47.098053 C 14.980306 46.655796 14.316819 46.248131 13.626162 45.894703 C 13.014717 45.581821 12.341093 45.283573 11.64406 45.263092 C 11.64406 45.576599 11.64406 45.890106 11.64406 46.203613 C 13.647375 46.256489 15.5952 45.593109 17.524527 45.144897 C 18.316031 44.961079 19.110041 44.795124 19.867161 44.492802 C 20.752298 44.139385 21.518406 43.595657 22.196943 42.930698 C 22.630316 42.505894 21.964842 41.841049 21.531574 42.265747 L 21.531574 42.265747 Z"/>
                </g>
            </g>
            <g id="Eyes">
                <g id="g1">
                    <g id="g160">
                        <path id="path162" fill="#ffffff" stroke="none" d="M 42.536285 32.257114 C 40.653881 31.343967 38.891861 30.346493 36.916656 29.805901 C 35.935795 29.607761 32.845863 28.809155 32.058647 29.975613 C 30.577007 31.935768 37.31147 34.645103 38.496529 34.969479"/>
                        <g id="g164">
                            <path id="path166" fill="none" stroke="none" d="M 42.536285 32.257114 C 40.653881 31.343967 38.891861 30.346493 36.916656 29.805901 C 35.935795 29.607761 32.845863 28.809155 32.058647 29.975613 C 30.577007 31.935768 37.31147 34.645103 38.496529 34.969479"/>
                            <path id="path168" fill="#b80000" stroke="none" d="M 42.654896 32.054062 C 40.465672 30.987511 38.352631 29.834637 35.94186 29.362808 C 34.732136 29.12611 32.347702 28.62669 31.708666 30.114182 C 31.216146 31.260574 32.629543 32.284805 33.422821 32.827278 C 34.68417 33.689426 36.111259 34.33588 37.533012 34.884518 C 37.829071 34.998737 38.128262 35.110558 38.434143 35.196041 C 38.726749 35.277855 38.850895 34.824116 38.559124 34.742706 C 37.390369 34.415718 36.253902 33.870842 35.180347 33.314888 C 34.490108 32.957279 33.808544 32.561737 33.193439 32.084267 C 32.755676 31.744633 32.256992 31.313976 32.105255 30.758648 C 31.927704 30.109795 32.624004 29.745392 33.145786 29.641933 C 34.010021 29.470654 34.965908 29.653954 35.816967 29.816349 C 38.187923 30.268742 40.26815 31.412941 42.41777 32.460159 C 42.688965 32.592358 42.927544 32.186886 42.654896 32.054062 L 42.654896 32.054062 Z"/>
                        </g>
                    </g>
                    <g id="g170">
                        <path id="path172" fill="#000000" stroke="none" d="M 41.01086 32.485344 C 40.01004 32.060753 36.018665 30.329769 34.911255 30.289433 C 34.788879 30.291103 34.662434 30.306778 34.540897 30.335518 C 34.054436 30.45089 33.643322 30.772549 33.883888 31.309483 C 33.959862 31.487244 34.046494 31.659672 34.191441 31.769505 C 34.951172 32.344997 38.752247 33.726421 39.618885 34.040867"/>
                    </g>
                </g>
                <g id="g2">
                    <g id="g175">
                        <path id="path177" fill="#ffffff" stroke="none" d="M 38.078831 33.424511 C 37.6325 33.221359 37.178333 33.00441 36.721031 32.789135 C 36.131008 32.503738 35.535973 32.218761 34.93351 31.953323 C 34.632336 31.820499 34.329067 31.692696 34.023502 31.571785 C 31.997826 30.878201 29.560614 29.739853 27.553225 31.201427 C 27.105118 31.51598 26.88681 31.96534 26.84062 32.456505 C 26.898621 35.556049 30.626333 36.433247 32.934063 37.449116 C 33.422718 37.637955 33.911163 37.821877 34.394802 38.011864"/>
                        <g id="g179">
                            <path id="path181" fill="none" stroke="none" d="M 38.078831 33.424511 C 37.6325 33.221359 37.178333 33.00441 36.721031 32.789135 C 36.131008 32.503738 35.535973 32.218761 34.93351 31.953323 C 34.632336 31.820499 34.329067 31.692696 34.023502 31.571785 C 31.997826 30.878201 29.560614 29.739853 27.553225 31.201427 C 27.105118 31.51598 26.88681 31.96534 26.84062 32.456505 C 26.898621 35.556049 30.626333 36.433247 32.934063 37.449116 C 33.422718 37.637955 33.911163 37.821877 34.394802 38.011864"/>
                            <path id="path183" fill="#b80000" stroke="none" d="M 38.197548 33.221462 C 36.019398 32.224926 33.89653 31.129528 31.569469 30.508991 C 29.830753 30.045212 26.89747 30.160896 26.605595 32.456398 C 26.513529 33.18029 26.925999 34.056335 27.357073 34.608421 C 27.853565 35.24432 28.51329 35.7127 29.213144 36.101971 C 30.814646 36.993065 32.630379 37.573368 34.332413 38.238529 C 34.615196 38.349094 34.736523 37.894192 34.457397 37.785091 C 32.952145 37.196743 31.405922 36.652805 29.947903 35.952221 C 28.661787 35.33419 27.414026 34.446129 27.122465 32.963131 C 26.893499 31.79845 27.82514 31.132248 28.837143 30.846012 C 29.833574 30.564064 30.910475 30.800137 31.877333 31.083652 C 34.002186 31.706905 35.955025 32.710026 37.960117 33.62735 C 38.233807 33.752754 38.472912 33.347599 38.197548 33.221462 L 38.197548 33.221462 Z"/>
                        </g>
                    </g>
                    <g id="g185">
                        <path id="path187" fill="#000000" stroke="none" d="M 36.87653 35.073353 C 35.770054 34.524921 31.357431 32.29369 30.129423 32.197128 C 29.993675 32.19368 29.853222 32.206638 29.717997 32.235584 C 29.177507 32.351166 28.718533 32.715149 28.980417 33.363377 C 29.062973 33.578026 29.157757 33.786507 29.317646 33.923405 C 30.155548 34.640293 34.360107 36.447979 35.318813 36.859718"/>
                    </g>
                </g>
            </g>
            <g id="Truba">
                <path id="ellipse190" fill="#ffff00" stroke="none" d="M 37.016373 41.447777 C 35.975101 39.534893 36.282459 37.357388 37.702877 36.58419 C 39.123299 35.810986 41.118896 36.734886 42.160168 38.64777 C 43.201439 40.560654 42.894085 42.738155 41.473663 43.511356 C 40.053246 44.284557 38.057648 43.360661 37.016373 41.447777 Z"/>
                <path id="ellipse192" fill="#d7d900" stroke="none" d="M 38.378738 40.625446 C 37.578053 39.309914 37.639885 37.81078 38.516838 37.277031 C 39.393791 36.743282 40.753784 37.377037 41.554466 38.69257 C 42.355152 40.008099 42.29332 41.507236 41.416367 42.040985 C 40.539413 42.574734 39.17942 41.940975 38.378738 40.625446 Z"/>
                <g id="g196"/>
            </g>
            <g id="Nose">
                <linearGradient id="linearGradient5" x1="34.94503" y1="69.635173" x2="31.185049" y2="61.952245" gradientUnits="userSpaceOnUse">
                    <stop offset="1e-05" stop-color="#ff0000" stop-opacity="1"/>
                    <stop offset="0" stop-color="#ffffff" stop-opacity="1"/>
                    <stop offset="0.0352" stop-color="#ffecec" stop-opacity="1"/>
                    <stop offset="0.1445" stop-color="#ffb5b5" stop-opacity="1"/>
                    <stop offset="0.2576" stop-color="#ff8585" stop-opacity="1"/>
                    <stop offset="0.3722" stop-color="#ff5c5c" stop-opacity="1"/>
                    <stop offset="0.4887" stop-color="#ff3b3b" stop-opacity="1"/>
                    <stop offset="0.6076" stop-color="#ff2121" stop-opacity="1"/>
                    <stop offset="0.7299" stop-color="#ff0e0e" stop-opacity="1"/>
                    <stop offset="0.8577" stop-color="#ff0404" stop-opacity="1"/>
                    <stop offset="1" stop-color="#ff0000" stop-opacity="1"/>
                </linearGradient>
                <path id="ellipse220" fill="url(#linearGradient5)" stroke="#b80000" stroke-width="1.126916" d="M 41.128654 37.3279 C 37.405609 39.341728 33.65831 39.48431 32.758827 37.646362 C 31.859346 35.808411 34.1483 32.685932 37.871346 30.6721 C 41.594391 28.658272 45.34169 28.51569 46.241173 30.353638 C 47.140652 32.191586 44.8517 35.314068 41.128654 37.3279 Z"/>
            </g>
            <g id="Fingers">
                <g id="g292">
                    <g id="g296">
                        <path id="path298" fill="none" stroke="none" d="M 52.086155 30.998589 C 51.020226 29.869961 49.389881 29.807259 49.327282 31.625603 C 49.327282 32.503426 49.452686 32.942337 50.393211 33.13044 C 51.020226 33.193245 51.647137 33.193245 51.459034 32.440723"/>
                    </g>
                </g>
                <g id="g302">
                    <g id="g306">
                        <path id="path308" fill="none" stroke="none" d="M 53.778988 30.277416 C 52.713062 29.148788 51.082825 29.086086 51.020123 30.90443 C 51.020123 31.782253 51.14563 32.221165 52.086155 32.409267 C 52.713062 32.472073 53.34008 32.472073 53.151974 31.719654"/>
                    </g>
                </g>
                <g id="g312">
                    <g id="g316">
                        <path id="path318" fill="none" stroke="none" d="M 55.346634 29.211594 C 54.280602 28.082966 52.65036 28.020264 52.587658 29.838608 C 52.587658 30.716431 52.713169 31.155342 53.653694 31.343445 C 54.280602 31.406254 54.907722 31.406254 54.719513 30.653831"/>
                    </g>
                </g>
                <g id="g322">
                    <g id="g326">
                        <path id="path328" fill="none" stroke="none" d="M 56.788773 28.333771 C 55.722736 27.205143 54.092495 27.142441 54.029797 28.960789 C 54.029797 29.838505 54.155304 30.277519 55.095829 30.465626 C 55.722736 30.528431 56.349754 30.528431 56.161652 29.776012"/>
                    </g>
                </g>
            </g>
        </g>
        <g id="g6198"/>
        <g id="g5764">
            <path id="path194" fill="none" stroke="#ffff00" stroke-width="2.084444" stroke-linecap="round" d="M 65.956802 27.942814 C 66.666092 29.193802 65.131767 31.37764 62.526222 32.825024 M 65.981529 27.986572 C 65.299469 26.783596 62.590336 27.008617 59.924248 28.489704 M 49.727421 37.073654 C 50.395851 38.252674 53.241173 37.926449 56.089005 36.34436 M 53.62101 31.991413 C 50.773281 33.573605 49.03175 35.846828 49.727421 37.073757 M 56.043964 36.38916 L 62.531464 32.831039 M 53.62101 31.991413 L 59.924141 28.489601"/>
            <linearGradient id="linearGradient6" x1="73.511291" y1="21.687328" x2="39.739391" y2="40.447878" gradientUnits="userSpaceOnUse">
                <stop offset="1e-05" stop-color="#d4d400" stop-opacity="1"/>
                <stop offset="1" stop-color="#fcff00" stop-opacity="1"/>
                <stop offset="1" stop-color="#803200" stop-opacity="1"/>
            </linearGradient>
            <path id="path211" fill="url(#linearGradient6)" stroke="none" d="M 77.371918 28.49966 C 75.715973 27.586514 74.459557 27.049679 71.006035 26.043205 C 69.988564 25.746635 68.066338 26.032112 67.020889 26.322666 C 59.214958 28.77943 52.965458 34.084309 45.764065 37.635269 C 45.003342 38.054619 44.247337 38.483192 43.496777 38.92701 C 43.198647 39.09116 42.898735 39.25499 42.598194 39.418522 C 41.99754 39.745483 41.394367 40.071598 40.788784 40.396587 C 40.319805 40.589039 39.961521 40.531029 39.672817 40.068024 C 39.384014 39.604931 39.45129 39.01339 39.919121 38.727501 C 40.493172 38.384163 41.068272 38.047359 41.64452 37.715534 C 41.932697 37.549618 42.221081 37.384949 42.508945 37.221214 C 43.0191 36.931797 43.530399 36.642902 44.042648 36.354935 C 51.151966 32.333611 58.458538 28.602112 65.186859 23.945648 C 65.864517 23.446453 66.382004 22.885666 66.768646 22.279877 C 67.928162 20.462502 67.910042 18.238533 67.498672 16.067345"/>
            <path id="ellipse213" fill="#ffff00" stroke="none" d="M 69.985664 22.369053 C 66.741104 16.970627 65.874855 11.55545 68.050827 10.273926 C 70.226807 8.992401 74.621025 12.329811 77.865578 17.728233 C 81.110138 23.126663 81.976387 28.54184 79.800407 29.823364 C 77.624435 31.104889 73.230217 27.767483 69.985664 22.369053 Z"/>
            <path id="ellipse215" fill="#b6b600" stroke="none" d="M 69.426315 12.763077 C 70.856995 11.962303 73.928726 14.660446 76.287224 18.789543 C 78.645721 22.91864 79.397865 26.915089 77.967194 27.715855 C 76.536514 28.516624 73.464775 25.818481 71.106285 21.689384 C 68.747787 17.560287 67.995636 13.563843 69.426315 12.763077 Z"/>
            <radialGradient id="radialGradient4" cx="72.389787" cy="21.419067" r="2.97391" fx="72.389787" fy="21.419067" gradientUnits="userSpaceOnUse">
                <stop offset="1e-05" stop-color="#808000" stop-opacity="1"/>
                <stop offset="1" stop-color="#808000" stop-opacity="0"/>
            </radialGradient>
            <path id="ellipse217" fill="url(#radialGradient4)" stroke="none" d="M 71.477425 21.729446 C 69.81707 18.855728 69.288414 16.06337 70.296638 15.492554 C 71.304863 14.92173 73.468178 16.788597 75.12854 19.662323 C 76.788895 22.536045 77.317551 25.328403 76.309326 25.899223 C 75.301109 26.470043 73.137787 24.603172 71.477425 21.729446 Z"/>
        </g>
        <g id="g5814">
            <path id="path294" fill="#ff0000" stroke="none" d="M 52.26683 31.393246 C 51.18821 30.277538 49.538445 30.215557 49.475101 32.013088 C 49.475101 32.880863 49.601997 33.314751 50.553726 33.500702 C 51.18821 33.56279 51.82259 33.56279 51.632244 32.818878"/>
            <path id="path300" fill="#800000" stroke="none" d="M 52.603321 31.064423 C 52.025726 30.489109 51.178268 29.998508 50.3214 30.168446 C 49.371681 30.356773 48.993423 31.270004 49.000084 32.13406 C 49.007168 33.039852 49.371471 33.675079 50.296761 33.920643 C 51.264984 34.177563 52.316853 33.821362 52.091293 32.695221 C 51.973488 32.107098 51.056236 32.356789 51.173405 32.942329 C 51.210835 33.129211 51.244572 33.023735 51.190964 33.041084 C 51.101189 33.070011 50.997868 33.059887 50.905338 33.059582 C 50.642982 33.058754 50.390244 33.005764 50.163837 32.874767 C 49.829464 32.681171 49.936905 31.927963 50.001305 31.641392 C 50.239765 30.581154 51.451527 31.245003 51.93045 31.72197 C 52.360634 32.150482 53.033188 31.492626 52.603325 31.064419 L 52.603325 31.064419 Z"/>
            <path id="path304" fill="#ff0000" stroke="none" d="M 53.979836 30.680332 C 52.901211 29.564621 51.251553 29.502636 51.188107 31.300167 C 51.188107 32.167942 51.315109 32.60183 52.26683 32.787785 C 52.901211 32.849873 53.535698 32.849873 53.345348 32.106064"/>
            <path id="path310" fill="#800000" stroke="none" d="M 54.316326 30.351608 C 53.738838 29.776295 52.89138 29.285694 52.034401 29.455631 C 51.084686 29.644062 50.706425 30.557293 50.713085 31.421242 C 50.720169 32.327034 51.084576 32.962162 52.009865 33.207829 C 52.977879 33.464748 54.029961 33.108654 53.804295 31.98251 C 53.686596 31.394382 52.769344 31.644077 52.886517 32.229618 C 52.923943 32.416393 52.957581 32.310917 52.903957 32.328274 C 52.814182 32.357201 52.710968 32.347176 52.618229 32.346771 C 52.356083 32.34584 52.103344 32.292946 51.876938 32.161957 C 51.542355 31.968357 51.649792 31.215359 51.714298 30.928478 C 51.952759 29.868244 53.164516 30.532089 53.643448 31.009056 C 54.073631 31.437672 54.746288 30.779816 54.316322 30.351612 L 54.316322 30.351612 Z"/>
            <path id="path314" fill="#ff0000" stroke="none" d="M 55.566151 29.626709 C 54.487419 28.510998 52.837765 28.449013 52.774315 30.246544 C 52.774315 31.114323 52.901318 31.54821 53.853043 31.734161 C 54.487419 31.796249 55.122013 31.796249 54.931561 31.052441"/>
            <path id="path320" fill="#800000" stroke="none" d="M 55.902637 29.297882 C 55.325047 28.722569 54.477589 28.231968 53.620613 28.401905 C 52.670895 28.590233 52.29274 29.503464 52.299404 30.367519 C 52.306385 31.273308 52.670788 31.90844 53.596077 32.154102 C 54.564091 32.411022 55.616169 32.055031 55.39061 30.928886 C 55.272808 30.340866 54.355556 30.590454 54.472725 31.175995 C 54.510265 31.362774 54.543892 31.257401 54.49017 31.274651 C 54.400391 31.303577 54.297176 31.293453 54.204548 31.293148 C 53.942291 31.292221 53.689552 31.239323 53.46315 31.108334 C 53.12867 30.914635 53.236111 30.161633 53.30051 29.874958 C 53.539078 28.814724 54.750729 29.478569 55.229767 29.955532 C 55.659946 30.383945 56.3325 29.726089 55.902634 29.297886 L 55.902634 29.297886 Z"/>
            <path id="path324" fill="#ff0000" stroke="none" d="M 57.025463 28.758934 C 55.946739 27.643223 54.297077 27.581238 54.233627 29.378773 C 54.233627 30.246445 54.36063 30.680431 55.312359 30.866386 C 55.946739 30.928478 56.581219 30.928478 56.390877 30.184666"/>
            <path id="path330" fill="#800000" stroke="none" d="M 57.36195 28.430107 C 56.784359 27.854797 55.936901 27.364193 55.079926 27.53413 C 54.130207 27.722462 53.752052 28.635792 53.758614 29.499744 C 53.765694 30.405537 54.1301 31.040665 55.055389 31.286324 C 56.023506 31.543251 57.075485 31.187256 56.849926 30.061111 C 56.732121 29.473091 55.814869 29.722679 55.932037 30.308323 C 55.969578 30.495102 56.003204 30.389622 55.949482 30.406982 C 55.859707 30.436005 55.756493 30.425884 55.66386 30.425476 C 55.401604 30.424549 55.148869 30.371651 54.922462 30.240662 C 54.587879 30.046963 54.695423 29.293961 54.759823 29.007286 C 54.99839 27.946949 56.210045 28.610794 56.689079 29.087864 C 57.119259 29.516171 57.791813 28.858318 57.36195 28.430111 L 57.36195 28.430111 Z"/>
        </g>
    </g>
</svg>
